<svg width="520" height="520" viewBox="0 0 520 520" fill="none" xmlns="http://www.w3.org/2000/svg">
<g clip-path="url(#clip0)">
<path d="M229.853 109.932C269.699 149.8 269.704 214.432 229.864 254.293C190.025 294.153 125.425 294.15 85.5791 254.282C45.7329 214.415 45.7298 149.781 85.5683 109.921C125.409 70.0594 190.006 70.0644 229.853 109.932Z" stroke="#84DB66" stroke-width="19"/>
<path d="M206.571 133.295C233.535 160.259 233.536 203.969 206.578 230.928C179.622 257.884 135.91 257.884 108.945 230.92C81.9812 203.956 81.9815 160.243 108.938 133.287C135.896 106.329 179.606 106.33 206.571 133.295Z" stroke="#F57474" stroke-width="21"/>
<path d="M171.206 168.659C178.639 176.091 178.636 188.135 171.21 195.561C163.786 202.985 151.743 202.989 144.31 195.556C136.876 188.122 136.881 176.079 144.304 168.655C151.73 161.229 163.774 161.226 171.206 168.659Z" stroke="#FF9E9E" stroke-width="57"/>
<path d="M343.236 189.302C333.62 197.166 333.093 211.378 341.657 219.943L336.724 215.009C329.083 207.368 316.625 205.903 308.261 212.742C298.645 220.611 298.118 234.818 306.683 243.382L301.675 238.375C294.033 230.733 281.576 229.268 273.212 236.107C263.595 243.976 263.069 258.183 271.633 266.747L173.221 168.335C165.582 160.697 153.119 159.231 144.76 166.07C135.141 173.937 134.612 188.146 143.176 196.711L227.817 281.352L235.541 327.673C237.991 342.369 248.161 354.606 262.161 359.702L356.061 393.89C363.998 396.781 371.203 401.371 377.175 407.343L403.164 433.332C409.617 439.785 420.082 439.783 426.534 433.331L490.79 369.075C497.245 362.62 497.241 352.161 490.788 345.708L464.915 319.835C454.657 309.576 448.118 296.438 444.582 282.37C440.762 267.187 432.941 252.806 421.06 240.925L371.699 191.564C364.058 183.928 351.598 182.46 343.236 189.302V189.302Z" fill="#F6D190"/>
<path d="M386.583 393.386C374.346 381.149 360.219 370.962 344.737 363.223C329.262 355.484 315.132 345.3 302.895 333.063L140.544 170.712C135.258 178.729 136.118 189.652 143.176 196.711L227.817 281.352L235.539 327.675C237.991 342.369 248.161 354.606 262.161 359.702L356.064 393.892C363.998 396.781 371.205 401.374 377.175 407.343L403.164 433.332C409.617 439.785 420.082 439.783 426.534 433.331L490.79 369.075C497.242 362.623 497.241 352.161 490.788 345.708L443.109 393.387C427.499 408.996 402.192 408.995 386.583 393.386V393.386Z" fill="#ECBD83"/>
<path d="M262.949 328.166C266.176 324.938 266.173 319.707 262.948 316.482L227.817 281.351L232.492 309.392L251.262 328.162C254.49 331.39 259.722 331.393 262.949 328.166V328.166Z" fill="#E2A975"/>
<path d="M362.253 217.172L339.028 193.947C333.739 201.96 334.599 212.884 341.655 219.94L350.57 228.855C353.798 232.083 359.029 232.081 362.254 228.856C365.484 225.631 365.481 220.4 362.253 217.172Z" fill="#ECBD83"/>
<path d="M327.204 252.221C330.432 248.994 330.432 243.765 327.204 240.537L304.05 217.384C298.761 225.397 299.624 236.324 306.683 243.382L315.521 252.22C318.749 255.448 323.977 255.448 327.204 252.221Z" fill="#ECBD83"/>
<path d="M292.152 275.589C295.38 272.361 295.379 267.133 292.151 263.905L268.998 240.752C263.712 248.768 264.572 259.692 271.63 266.75L280.468 275.588C283.696 278.816 288.927 278.813 292.152 275.589Z" fill="#ECBD83"/>
</g>
<defs>
<clipPath id="clip0">
<rect width="520" height="520" fill="white" transform="translate(0 0.980652)"/>
</clipPath>
</defs>
</svg>
